<svg width="24" height="24" viewBox="0 0 24 24" fill="none" xmlns="http://www.w3.org/2000/svg">
<path d="M11.47 2.15199C11.7943 1.94932 12.2057 1.94932 12.53 2.15199L19.682 6.62199C20.1503 6.9147 20.2927 7.53165 20 7.99999C19.7073 8.46832 19.0903 8.6107 18.622 8.31799L12.53 4.51048C12.2057 4.30782 11.7943 4.30782 11.47 4.51048L5.378 8.31799C4.90966 8.6107 4.29271 8.46832 4 7.99999C3.70729 7.53165 3.84966 6.9147 4.318 6.62199L11.47 2.15199Z" fill="white" fill-opacity="1.0"/>
<path d="M3 21C3 20.4477 3.44772 20 4 20H20C20.5523 20 21 20.4477 21 21C21 21.5523 20.5523 22 20 22H4C3.44772 22 3 21.5523 3 21Z" fill="white" fill-opacity="1.0"/>
<path d="M8.53463 17.4381C8.84493 17.895 8.72613 18.5169 8.26926 18.8272C7.8124 19.1375 7.19048 19.0187 6.88017 18.5619C6.15923 17.5004 5.9152 16.5281 6.02507 15.5961C6.12532 14.7458 6.51724 14.0315 6.80776 13.502L6.83049 13.4605C7.15563 12.8673 7.35462 12.4833 7.40391 12.0778C7.44482 11.7413 7.38992 11.2801 6.89204 10.579C6.57228 10.1287 6.67811 9.5044 7.12842 9.18464C7.57872 8.86488 8.20298 8.97071 8.52274 9.42102C9.25011 10.4454 9.50153 11.396 9.38929 12.3192C9.28976 13.1379 8.90581 13.8366 8.62096 14.3551L8.5843 14.4218C8.26409 15.006 8.06158 15.404 8.01132 15.8303C7.96804 16.1974 8.03031 16.6956 8.53463 17.4381Z" fill="white" fill-opacity="1.0"/>
<path d="M12.562 18.8272C13.0189 18.5169 13.1377 17.895 12.8273 17.4381C12.323 16.6956 12.2608 16.1974 12.304 15.8303C12.3543 15.404 12.5568 15.006 12.877 14.4218L12.9137 14.3551C13.1985 13.8366 13.5825 13.1379 13.682 12.3192C13.7943 11.396 13.5428 10.4454 12.8155 9.42102C12.4957 8.97071 11.8714 8.86488 11.4211 9.18464C10.9708 9.5044 10.865 10.1287 11.1848 10.579C11.6826 11.2801 11.7375 11.7413 11.6966 12.0778C11.6473 12.4833 11.4484 12.8673 11.1232 13.4605L11.1005 13.502C10.81 14.0315 10.418 14.7458 10.3178 15.5961C10.2079 16.5281 10.452 17.5004 11.1729 18.5619C11.4832 19.0187 12.1051 19.1375 12.562 18.8272Z" fill="white" fill-opacity="1.0"/>
<path d="M17.1198 17.4381C17.4301 17.895 17.3113 18.5169 16.8545 18.8272C16.3976 19.1375 15.7757 19.0187 15.4654 18.5619C14.7444 17.5004 14.5004 16.5281 14.6103 15.5961C14.7105 14.7458 15.1024 14.0315 15.393 13.502L15.4157 13.4605C15.7408 12.8673 15.9398 12.4833 15.9891 12.0778C16.03 11.7413 15.9751 11.2801 15.4772 10.579C15.1575 10.1287 15.2633 9.5044 15.7136 9.18464C16.1639 8.86488 16.7882 8.97071 17.1079 9.42102C17.8353 10.4454 18.0867 11.396 17.9745 12.3192C17.875 13.1379 17.491 13.8366 17.2062 14.3551L17.1695 14.4218C16.8493 15.006 16.6468 15.404 16.5965 15.8303C16.5532 16.1974 16.6155 16.6956 17.1198 17.4381Z" fill="white" fill-opacity="1.0"/>
</svg>
