<svg width="24" height="24" viewBox="0 0 24 24" fill="none" xmlns="http://www.w3.org/2000/svg">
<path fill-rule="evenodd" clip-rule="evenodd" d="M12 12V10V6V2V0C11.3121 0 10.6364 0.118125 10 0.343143C9.16419 0.638662 8.39617 1.11855 7.75736 1.75736C6.63214 2.88258 6 4.4087 6 6C6 7.5913 6.63214 9.11742 7.75736 10.2426C8.39617 10.8815 9.16419 11.3613 10 11.6569C10.6364 11.8819 11.3121 12 12 12ZM12 12H10H6H2H0C0 12.6879 0.118125 13.3636 0.343142 14C0.638662 14.8358 1.11855 15.6038 1.75736 16.2426C2.88258 17.3679 4.4087 18 6 18C7.5913 18 9.11742 17.3679 10.2426 16.2426C10.8815 15.6038 11.3613 14.8358 11.6569 14C11.8819 13.3636 12 12.6879 12 12ZM12 12C12 11.3121 12.1181 10.6364 12.3431 10C12.6387 9.16419 13.1185 8.39617 13.7574 7.75736C14.8826 6.63214 16.4087 6 18 6C19.5913 6 21.1174 6.63214 22.2426 7.75736C22.8815 8.39617 23.3613 9.16419 23.6569 10C23.8819 10.6364 24 11.3121 24 12H22H18H14H12.0034C12.6901 12.0004 13.3646 12.1185 14 12.3431C14.8358 12.6387 15.6038 13.1185 16.2426 13.7574C17.3679 14.8826 18 16.4087 18 18C18 19.5913 17.3679 21.1174 16.2426 22.2426C15.6038 22.8815 14.8358 23.3613 14 23.6569C13.3636 23.8819 12.6879 24 12 24V22L12 18V14L12 12ZM9.17157 3.17157C9.42092 2.92222 9.69981 2.70919 10 2.53589V6V9.46411C9.69981 9.29081 9.42092 9.07778 9.17157 8.82843C8.42143 8.07828 8 7.06087 8 6C8 4.93913 8.42143 3.92172 9.17157 3.17157ZM20.8284 9.17157C21.0778 9.42092 21.2908 9.69981 21.4641 10H18L14.5359 10C14.7092 9.69981 14.9222 9.42092 15.1716 9.17157C15.9217 8.42143 16.9391 8 18 8C19.0609 8 20.0783 8.42143 20.8284 9.17157ZM14 21.4641C14.3002 21.2908 14.5791 21.0778 14.8284 20.8284C15.5786 20.0783 16 19.0609 16 18C16 16.9391 15.5786 15.9217 14.8284 15.1716C14.5791 14.9222 14.3002 14.7092 14 14.5359V18L14 21.4641ZM3.17157 14.8284C2.92222 14.5791 2.70919 14.3002 2.53589 14H6H9.46411C9.29081 14.3002 9.07778 14.5791 8.82843 14.8284C8.07828 15.5786 7.06087 16 6 16C4.93913 16 3.92172 15.5786 3.17157 14.8284Z" fill="#ffffff"/>
</svg>
