<svg width="24" height="24" viewBox="0 0 24 24" fill="none" xmlns="http://www.w3.org/2000/svg">
<path d="M6.05546 17.501C6.55195 18.232 6.36186 19.227 5.63088 19.7235C4.89991 20.22 3.90485 20.0299 3.40836 19.2989C2.25488 17.6007 1.86442 16.0449 2.04023 14.5538C2.20063 13.1934 2.82768 12.0504 3.2925 11.2032L3.32888 11.1369C3.84909 10.1878 4.16747 9.57334 4.24633 8.92462C4.3118 8.38613 4.22396 7.64829 3.42736 6.52645C2.91575 5.80597 3.08508 4.80717 3.80555 4.29557C4.52603 3.78396 5.52483 3.95329 6.03644 4.67377C7.20022 6.31268 7.60248 7.83363 7.4229 9.3108C7.26367 10.6206 6.64935 11.7387 6.19359 12.5681L6.13494 12.675C5.62261 13.6097 5.2986 14.2464 5.21818 14.9285C5.14893 15.5158 5.24857 16.313 6.05546 17.501Z" fill="#D9A110"/>
<path d="M12.4992 19.7235C13.2301 19.227 13.4202 18.232 12.9237 17.501C12.1168 16.313 12.0172 15.5158 12.0864 14.9285C12.1669 14.2464 12.4909 13.6097 13.0032 12.675L13.0619 12.5681C13.5176 11.7387 14.1319 10.6206 14.2912 9.3108C14.4708 7.83363 14.0685 6.31268 12.9047 4.67377C12.3931 3.95329 11.3943 3.78396 10.6738 4.29557C9.95335 4.80717 9.78403 5.80597 10.2956 6.52645C11.0922 7.64829 11.1801 8.38613 11.1146 8.92462C11.0357 9.57334 10.7174 10.1878 10.1972 11.1369L10.1608 11.2032C9.69595 12.0504 9.0689 13.1934 8.9085 14.5538C8.7327 16.0449 9.12315 17.6007 10.2766 19.2989C10.7731 20.0299 11.7682 20.22 12.4992 19.7235Z" fill="#D9A110"/>
<path d="M19.7916 17.501C20.2881 18.232 20.098 19.227 19.367 19.7235C18.6361 20.22 17.641 20.0299 17.1445 19.2989C15.991 17.6007 15.6006 16.0449 15.7764 14.5538C15.9368 13.1934 16.5638 12.0504 17.0287 11.2032L17.065 11.1369C17.5852 10.1878 17.9036 9.57334 17.9825 8.92462C18.048 8.38613 17.9601 7.64829 17.1635 6.52645C16.6519 5.80597 16.8212 4.80717 17.5417 4.29557C18.2622 3.78396 19.261 3.95329 19.7726 4.67377C20.9364 6.31268 21.3386 7.83363 21.1591 9.3108C20.9998 10.6206 20.3855 11.7387 19.9298 12.5681L19.8711 12.675C19.3588 13.6097 19.0348 14.2464 18.9543 14.9285C18.8851 15.5158 18.9847 16.313 19.7916 17.501Z" fill="#D9A110"/>
</svg>
