<svg width="24" height="24" viewBox="0 0 24 24" fill="none" xmlns="http://www.w3.org/2000/svg">
<path d="M10 7C10.5523 7 11 6.55228 11 6C11 5.44772 10.5523 5 10 5C9.44771 5 9 5.44772 9 6C9 6.55228 9.44771 7 10 7Z" fill="white" fill-opacity="1.0"/>
<path d="M11 9C11 9.55229 10.5523 10 10 10C9.44771 10 9 9.55229 9 9C9 8.44771 9.44771 8 10 8C10.5523 8 11 8.44771 11 9Z" fill="white" fill-opacity="1.0"/>
<path d="M10 13C10.5523 13 11 12.5523 11 12C11 11.4477 10.5523 11 10 11C9.44771 11 9 11.4477 9 12C9 12.5523 9.44771 13 10 13Z" fill="white" fill-opacity="1.0"/>
<path d="M15 6C15 6.55228 14.5523 7 14 7C13.4477 7 13 6.55228 13 6C13 5.44772 13.4477 5 14 5C14.5523 5 15 5.44772 15 6Z" fill="white" fill-opacity="1.0"/>
<path d="M14 10C14.5523 10 15 9.55229 15 9C15 8.44771 14.5523 8 14 8C13.4477 8 13 8.44771 13 9C13 9.55229 13.4477 10 14 10Z" fill="white" fill-opacity="1.0"/>
<path d="M15 12C15 12.5523 14.5523 13 14 13C13.4477 13 13 12.5523 13 12C13 11.4477 13.4477 11 14 11C14.5523 11 15 11.4477 15 12Z" fill="white" fill-opacity="1.0"/>
<path d="M12 18C13.1046 18 14 17.1046 14 16C14 14.8954 13.1046 14 12 14C10.8954 14 10 14.8954 10 16C10 17.1046 10.8954 18 12 18Z" fill="white" fill-opacity="1.0"/>
<path fill-rule="evenodd" clip-rule="evenodd" d="M5 4C5 2.89543 5.89543 2 7 2H17C18.1046 2 19 2.89543 19 4V20C19 21.1046 18.1046 22 17 22H7C5.89543 22 5 21.1046 5 20V4ZM7 4H17V20H7V4Z" fill="white" fill-opacity="1.0"/>
</svg>
