<svg width="24" height="24" viewBox="0 0 24 24" fill="none" xmlns="http://www.w3.org/2000/svg">
<rect x="11" y="10" width="2" height="14" rx="1" fill="#ffffff"/>
<rect x="15.8472" y="13" width="2" height="11" rx="1" transform="rotate(15 15.8472 13)" fill="#ffffff"/>
<rect x="6" y="13.5176" width="2" height="11" rx="1" transform="rotate(-15 6 13.5176)" fill="#ffffff"/>
<path d="M18.6957 15.3043C18.1434 15.3043 17.6957 15.7521 17.6957 16.3043C17.6957 16.8566 18.1434 17.3043 18.6957 17.3043V15.3043ZM20.9424 8.32781L19.976 8.07052C19.8622 8.49786 20.0427 8.94918 20.4197 9.18033L20.9424 8.32781ZM15.6722 3.05764L14.8197 3.58034C15.0508 3.95734 15.5021 4.13775 15.9295 4.02397L15.6722 3.05764ZM8.32781 3.05764L8.07051 4.02397C8.49785 4.13775 8.94918 3.95734 9.18033 3.58034L8.32781 3.05764ZM3.05764 8.32781L3.58034 9.18033C3.95734 8.94918 4.13775 8.49785 4.02397 8.07051L3.05764 8.32781ZM5.30435 17.3043C5.85663 17.3043 6.30435 16.8566 6.30435 16.3043C6.30435 15.7521 5.85663 15.3043 5.30435 15.3043V17.3043ZM22 12C22 13.8249 20.5206 15.3043 18.6957 15.3043V17.3043C21.6252 17.3043 24 14.9295 24 12H22ZM20.4197 9.18033C21.3698 9.76287 22 10.8083 22 12H24C24 10.084 22.9835 8.40626 21.4651 7.4753L20.4197 9.18033ZM20.087 7.21739C20.087 7.51371 20.0482 7.79946 19.976 8.07052L21.9087 8.58511C22.0252 8.14767 22.087 7.68898 22.087 7.21739H20.087ZM16.7826 3.91304C18.6075 3.91304 20.087 5.39245 20.087 7.21739H22.087C22.087 4.28788 19.7121 1.91304 16.7826 1.91304V3.91304ZM15.9295 4.02397C16.2005 3.9518 16.4863 3.91304 16.7826 3.91304V1.91304C16.311 1.91304 15.8523 1.97483 15.4149 2.0913L15.9295 4.02397ZM12 2C13.1917 2 14.2371 2.63022 14.8197 3.58034L16.5247 2.53494C15.5937 1.01654 13.916 0 12 0V2ZM9.18033 3.58034C9.76287 2.63022 10.8083 2 12 2V0C10.084 0 8.40626 1.01654 7.47529 2.53494L9.18033 3.58034ZM7.21739 3.91304C7.51372 3.91304 7.79946 3.9518 8.07051 4.02397L8.5851 2.0913C8.14766 1.97483 7.68898 1.91304 7.21739 1.91304V3.91304ZM3.91304 7.21739C3.91304 5.39245 5.39245 3.91304 7.21739 3.91304V1.91304C4.28788 1.91304 1.91304 4.28788 1.91304 7.21739H3.91304ZM4.02397 8.07051C3.9518 7.79946 3.91304 7.51372 3.91304 7.21739H1.91304C1.91304 7.68898 1.97483 8.14766 2.0913 8.5851L4.02397 8.07051ZM2 12C2 10.8083 2.63022 9.76287 3.58034 9.18033L2.53494 7.47529C1.01654 8.40626 0 10.084 0 12H2ZM5.30435 15.3043C3.47941 15.3043 2 13.8249 2 12H0C0 14.9295 2.37484 17.3043 5.30435 17.3043V15.3043Z" fill="#ffffff"/>
</svg>
