<svg width="24" height="24" viewBox="0 0 24 24" fill="none" xmlns="http://www.w3.org/2000/svg">
<path d="M15 2.505C15 1.95272 14.5523 1.505 14 1.505H10C9.44772 1.505 9 1.95272 9 2.505C9 3.05729 9.44772 3.505 10 3.505H14C14.5523 3.505 15 3.05729 15 2.505ZM11 13.505C11 14.0573 11.4477 14.505 12 14.505C12.5523 14.505 13 14.0573 13 13.505V9.505C13 8.95272 12.5523 8.505 12 8.505C11.4477 8.505 11 8.95272 11 9.505V13.505ZM19.03 7.885L19.8005 7.11449C20.1678 6.74721 20.1965 6.15588 19.8329 5.78493C19.7932 5.74436 19.7531 5.7041 19.7128 5.66418C19.3467 5.30199 18.7622 5.33284 18.398 5.69699L17.62 6.47501C16.07 5.23501 14.12 4.495 12 4.495C7.03 4.495 3 8.525 3 13.495C3 18.465 7.02 22.495 12 22.495C16.98 22.495 21 18.465 21 13.495C21 11.385 20.26 9.43501 19.03 7.885ZM12 20.505C8.13 20.505 5 17.375 5 13.505C5 9.635 8.13 6.505 12 6.505C15.87 6.505 19 9.635 19 13.505C19 17.375 15.87 20.505 12 20.505Z" fill="white" fill-opacity="1.0"/>
</svg>
